<?xml version="1.0" standalone="no"?>
<!DOCTYPE svg PUBLIC "-//W3C//DTD SVG 20010904//EN"
 "http://www.w3.org/TR/2001/REC-SVG-20010904/DTD/svg10.dtd">
<svg version="1.0" xmlns="http://www.w3.org/2000/svg"
 width="660.000000pt" height="660.000000pt" viewBox="0 0 660.000000 660.000000"
 preserveAspectRatio="xMidYMid meet">
<metadata>
Created by potrace 1.11, written by Peter Selinger 2001-2013
</metadata>
<g transform="translate(0.000000,660.000000) scale(0.100000,-0.100000)"
fill="#000000" stroke="none">
<path d="M2928 6175 c-2 -1 -48 -5 -103 -8 -297 -18 -576 -108 -833 -269 -380
-238 -677 -687 -727 -1097 -9 -72 -9 -359 0 -440 8 -83 65 -254 111 -339 106
-193 256 -322 462 -396 l87 -31 220 0 c203 0 225 2 289 23 137 46 262 123 344
211 75 82 152 247 167 361 11 83 13 244 4 310 -38 283 -213 507 -468 600 -81
30 -88 30 -259 30 -169 0 -182 -2 -272 -30 -51 -17 -98 -30 -102 -30 -26 0 13
173 62 275 67 139 212 272 385 355 164 79 239 95 445 95 194 0 270 -11 389
-57 315 -121 573 -394 730 -772 78 -187 112 -315 153 -576 30 -192 31 -634 2
-855 -55 -418 -162 -774 -340 -1129 -85 -168 -223 -396 -301 -496 -6 -8 -40
-51 -74 -95 -238 -306 -526 -570 -884 -811 -213 -143 -304 -195 -617 -348
-238 -117 -277 -139 -286 -163 -12 -35 0 -68 29 -84 51 -27 296 16 504 88 436
152 904 410 1325 732 139 106 144 111 280 231 287 256 539 565 734 904 329
570 491 1163 480 1761 -18 1077 -616 1857 -1549 2020 -109 19 -375 39 -387 30z"/>
<path d="M5507 5526 c-92 -38 -144 -89 -189 -183 -28 -59 -30 -69 -26 -160 2
-80 8 -107 28 -146 99 -195 349 -257 522 -131 59 42 112 114 130 174 7 25 13
81 13 125 -1 98 -29 167 -99 238 -65 68 -140 100 -241 104 -67 3 -89 0 -138
-21z"/>
<path d="M5560 3825 c-78 -21 -117 -43 -167 -93 -75 -76 -97 -129 -101 -245
-4 -90 -2 -101 25 -160 65 -139 182 -209 337 -203 129 5 247 85 304 206 23 47
26 68 26 145 0 102 -24 171 -83 237 -83 95 -230 144 -341 113z"/>
</g>
</svg>
